<svg width="75" height="95" viewBox="0 0 75 95" fill="none" xmlns="http://www.w3.org/2000/svg">
<path fill-rule="evenodd" clip-rule="evenodd" d="M7.74771 89.4894L6.32171 86.3944H6.30371L4.89671 89.4894H7.74771ZM0.0377094 93.5034L5.90971 80.8784C5.96571 80.7664 6.09671 80.6724 6.22871 80.6724H6.41571C6.54671 80.6724 6.67871 80.7664 6.73471 80.8784L12.6067 93.5034C12.7187 93.7474 12.5687 93.9914 12.2877 93.9914H10.2057C9.86771 93.9914 9.71771 93.8794 9.54871 93.5224L8.87371 92.0404H3.77071L3.09571 93.5414C3.00171 93.7664 2.79571 93.9914 2.41971 93.9914H0.356709C0.0757095 93.9914 -0.0752906 93.7474 0.0377094 93.5034Z" fill="white"/>
<path fill-rule="evenodd" clip-rule="evenodd" d="M27.351 80.6725C29.227 80.6725 30.615 81.2545 31.891 82.4175C32.06 82.5675 32.06 82.7925 31.91 82.9425L30.446 84.4615C30.315 84.5935 30.109 84.5935 29.977 84.4615C29.283 83.8425 28.364 83.5055 27.445 83.5055C25.325 83.5055 23.768 85.2685 23.768 87.3695C23.768 89.4515 25.344 91.1775 27.464 91.1775C28.345 91.1775 29.302 90.8585 29.977 90.2775C30.109 90.1645 30.352 90.1645 30.465 90.2965L31.928 91.8535C32.06 91.9845 32.041 92.2285 31.91 92.3595C30.634 93.5975 29.021 94.1795 27.351 94.1795C23.599 94.1795 20.579 91.1965 20.579 87.4445C20.579 83.6925 23.599 80.6725 27.351 80.6725Z" fill="white"/>
<path fill-rule="evenodd" clip-rule="evenodd" d="M42.9586 80.9727C42.9776 80.8037 43.1466 80.6727 43.2966 80.6727H43.5966C43.6906 80.6727 43.8586 80.7477 43.9156 80.8597L48.2676 88.9637H48.3056L52.6576 80.8597C52.7136 80.7477 52.8826 80.6727 52.9756 80.6727H53.2766C53.4266 80.6727 53.5946 80.8037 53.6136 80.9727L55.7336 93.5787C55.7716 93.8227 55.6026 93.9917 55.3776 93.9917H53.1636C52.9946 93.9917 52.8256 93.8417 52.8076 93.6917L51.9626 87.8947H51.9256L48.7736 93.9727C48.7176 94.0857 48.5486 94.1797 48.4546 94.1797H48.1176C48.0046 94.1797 47.8546 94.0857 47.7986 93.9727L44.6286 87.8947H44.5906L43.7656 93.6917C43.7466 93.8417 43.5966 93.9917 43.4086 93.9917H41.1956C40.9696 93.9917 40.8016 93.8227 40.8386 93.5787L42.9586 80.9727Z" fill="white"/>
<path fill-rule="evenodd" clip-rule="evenodd" d="M65.6384 81.2166C65.6384 81.0286 65.7884 80.8606 65.9954 80.8606H73.7614C73.9674 80.8606 74.1174 81.0286 74.1174 81.2166V83.2616C74.1174 83.4486 73.9674 83.6176 73.7614 83.6176H68.5644V85.9436H72.8424C73.0294 85.9436 73.1984 86.1126 73.1984 86.3006V88.3456C73.1984 88.5516 73.0294 88.7016 72.8424 88.7016H68.5644V91.2336H73.7614C73.9674 91.2336 74.1174 91.4026 74.1174 91.5906V93.6356C74.1174 93.8226 73.9674 93.9916 73.7614 93.9916H65.9954C65.7884 93.9916 65.6384 93.8226 65.6384 93.6356V81.2166Z" fill="white"/>
<path fill-rule="evenodd" clip-rule="evenodd" d="M34.2873 12.0633C35.8613 12.0633 37.1383 10.7873 37.1383 9.2123C37.1383 7.6373 35.8613 6.3613 34.2873 6.3613C32.7123 6.3613 31.4363 7.6373 31.4363 9.2123C31.4363 10.7873 32.7123 12.0633 34.2873 12.0633Z" fill="white"/>
<path fill-rule="evenodd" clip-rule="evenodd" d="M41.8667 6.583C43.6847 6.583 45.1587 5.109 45.1587 3.291C45.1587 1.473 43.6847 0 41.8667 0C40.0487 0 38.5747 1.473 38.5747 3.291C38.5747 5.109 40.0487 6.583 41.8667 6.583Z" fill="white"/>
<path fill-rule="evenodd" clip-rule="evenodd" d="M46.1425 58.7573H27.9505C25.9155 58.7573 24.7175 56.4733 25.8745 54.7993L35.1795 41.3323C36.1955 39.8613 38.3775 39.8843 39.3615 41.3763L48.2485 54.8433C49.3565 56.5213 48.1525 58.7573 46.1425 58.7573ZM57.2125 55.2953L44.2815 33.9373V22.0093H44.5955C46.4665 22.0093 47.9835 20.4913 47.9835 18.6203C47.9835 16.7493 46.4665 15.2323 44.5955 15.2323H29.5225C27.6515 15.2323 26.1345 16.7493 26.1345 18.6203C26.1345 20.4913 27.6515 22.0093 29.5225 22.0093H29.8365V33.9373L16.9055 55.2953C14.6395 59.8453 17.9495 65.1903 23.0325 65.1903H51.0845C56.1685 65.1903 59.4775 59.8453 57.2125 55.2953Z" fill="white"/>
</svg>
